<svg width="27" height="31" viewBox="0 0 27 31" fill="none" xmlns="http://www.w3.org/2000/svg">
<path fill-rule="evenodd" clip-rule="evenodd" d="M20.6137 8.54153C22.2354 7.75536 23.3351 6.48551 23.3351 4.77132C23.3351 3.87486 23.1276 2.89364 22.4272 2.00143C22.0151 1.47642 21.5451 1.04297 20.9426 0.752807C20.3423 0.463723 19.6872 0.353821 18.9614 0.353821C17.3675 0.353821 15.8806 1.42807 14.8455 2.88138C14.541 3.30882 14.2652 3.7819 14.0266 4.29351C13.788 3.7819 13.5122 3.30882 13.2077 2.88138C12.1726 1.42807 10.6857 0.353821 9.09179 0.353821C8.36597 0.353821 7.71091 0.463723 7.11062 0.752807C6.50809 1.04297 6.03811 1.47642 5.62599 2.00143C4.92565 2.89364 4.71814 3.87486 4.71814 4.77132C4.71814 6.48551 5.81786 7.75536 7.43949 8.54153C7.66118 8.64901 7.89512 8.74906 8.14086 8.84167H1.7793C1.22701 8.84167 0.779297 9.28939 0.779297 9.84167V16.8417C0.779297 17.394 1.22701 17.8417 1.7793 17.8417H25.7793C26.3316 17.8417 26.7793 17.394 26.7793 16.8417V9.84167C26.7793 9.28939 26.3316 8.84167 25.7793 8.84167H19.9124C20.1581 8.74906 20.392 8.64901 20.6137 8.54153ZM15.1305 7.68306C15.2982 6.22882 15.8119 4.97198 16.4745 4.04165C17.3129 2.86453 18.2706 2.35382 18.9614 2.35382C19.4856 2.35382 19.822 2.43301 20.0748 2.55474C20.3254 2.67539 20.57 2.87448 20.854 3.23634C21.207 3.68606 21.3351 4.19258 21.3351 4.77131C21.3351 5.46575 20.9352 6.16305 19.7412 6.74187C18.6991 7.24709 17.1588 7.59402 15.1305 7.68306ZM12.9227 7.68306C12.755 6.22882 12.2413 4.97198 11.5787 4.04165C10.7403 2.86453 9.78257 2.35382 9.09179 2.35382C8.56762 2.35382 8.23116 2.43301 7.97839 2.55474C7.72786 2.67539 7.48325 2.87448 7.19921 3.23634C6.8462 3.68606 6.71814 4.19258 6.71814 4.77131C6.71814 5.46575 7.11804 6.16305 8.31197 6.74187C9.35407 7.24709 10.8944 7.59402 12.9227 7.68306ZM3.2793 15.3417V11.3417H24.2793V15.3417H3.2793Z" fill="white"/>
<path fill-rule="evenodd" clip-rule="evenodd" d="M3.5293 29.6031V19.1031C3.5293 18.827 3.75315 18.6031 4.0293 18.6031H5.5293C5.80544 18.6031 6.0293 18.827 6.0293 19.1031V27.8531C6.0293 28.1293 6.25315 28.3531 6.5293 28.3531H21.0293C21.3054 28.3531 21.5293 28.1293 21.5293 27.8531V19.1031C21.5293 18.827 21.7532 18.6031 22.0293 18.6031H23.5293C23.8054 18.6031 24.0293 18.827 24.0293 19.1031V29.6031C24.0293 30.2935 23.4697 30.8531 22.7793 30.8531H4.7793C4.08894 30.8531 3.5293 30.2935 3.5293 29.6031Z" fill="white"/>
</svg>
