<svg width="27" height="31" viewBox="0 0 27 31" fill="none" xmlns="http://www.w3.org/2000/svg">
<path fill-rule="evenodd" clip-rule="evenodd" d="M23.0155 4.57378C23.0155 6.28797 21.9158 7.55782 20.2941 8.34399C20.0122 8.4807 19.7104 8.60539 19.3897 8.71805H26.3549C26.631 8.71805 26.8549 8.94191 26.8549 9.21805V16.2617C26.8549 16.5378 26.631 16.7617 26.3549 16.7617H16.0635C15.7874 16.7617 15.5635 16.5378 15.5635 16.2617V9.44493C14.9867 9.48703 14.3823 9.50809 13.7525 9.5081C13.7373 9.5081 13.7221 9.50775 13.707 9.50706C13.6919 9.50775 13.6768 9.5081 13.6616 9.5081C13.1536 9.50809 12.6623 9.49439 12.1885 9.46701V16.2617C12.1885 16.5378 11.9647 16.7617 11.6885 16.7617H1.39722C1.12107 16.7617 0.897217 16.5378 0.897217 16.2617V9.21805C0.897217 8.94191 1.12107 8.71805 1.39722 8.71805H8.02437C7.70369 8.60539 7.40189 8.4807 7.11991 8.34399C5.49828 7.55782 4.39856 6.28797 4.39856 4.57378C4.39856 3.67732 4.60607 2.6961 5.30641 1.80389C5.71853 1.27887 6.18851 0.84543 6.79104 0.555266C7.39133 0.266183 8.04639 0.156281 8.77221 0.156281C10.3661 0.156281 11.8531 1.23053 12.8882 2.68384C13.1926 3.11128 13.4685 3.58436 13.707 4.09597C13.9456 3.58436 14.2214 3.11128 14.5259 2.68384C15.561 1.23053 17.048 0.156281 18.6418 0.156281C19.3677 0.156281 20.0227 0.266183 20.623 0.555266C21.2255 0.84543 21.6955 1.27887 22.1076 1.80389C22.808 2.6961 23.0155 3.67732 23.0155 4.57378ZM16.1549 3.84411C15.4923 4.77444 14.9787 6.03128 14.8109 7.48552C16.8392 7.39647 18.3796 7.04955 19.4217 6.54433C20.6156 5.96551 21.0155 5.26821 21.0155 4.57377C21.0155 3.99504 20.8874 3.48852 20.5344 3.0388C20.2504 2.67694 20.0058 2.47785 19.7552 2.3572C19.5025 2.23547 19.166 2.15628 18.6418 2.15628C17.9511 2.15628 16.9933 2.66699 16.1549 3.84411ZM11.2591 3.84411C11.9217 4.77444 12.4354 6.03128 12.6031 7.48552C10.5748 7.39647 9.03449 7.04955 7.99239 6.54433C6.79846 5.96551 6.39856 5.26821 6.39856 4.57377C6.39856 3.99504 6.52662 3.48852 6.87963 3.0388C7.16367 2.67694 7.40828 2.47785 7.65881 2.3572C7.91158 2.23547 8.24804 2.15628 8.77221 2.15628C9.46299 2.15628 10.4207 2.66699 11.2591 3.84411ZM3.5192 18.9055C3.5192 18.6294 3.74305 18.4055 4.0192 18.4055H11.6885C11.9647 18.4055 12.1885 18.6294 12.1885 18.9055V30.0243C12.1885 30.3005 11.9647 30.5243 11.6885 30.5243H4.0192C3.74305 30.5243 3.5192 30.3005 3.5192 30.0243V18.9055ZM15.5635 18.9055C15.5635 18.6294 15.7874 18.4055 16.0635 18.4055H23.7329C24.009 18.4055 24.2329 18.6294 24.2329 18.9055V30.0243C24.2329 30.3005 24.009 30.5243 23.7329 30.5243H16.0635C15.7874 30.5243 15.5635 30.3005 15.5635 30.0243V18.9055Z" fill="white"/>
</svg>

